<mxfile host="app.diagrams.net" modified="2023-07-22T04:14:54.169Z" agent="Mozilla/5.0 (Windows NT 10.0; Win64; x64) AppleWebKit/537.36 (KHTML, like Gecko) Chrome/114.0.0.0 Safari/537.36" etag="VXZ7TixRMohTd9rvgjYu" version="21.6.5" type="device">
  <diagram name="페이지-1" id="Xu6g0WvwmEnd_AgywDyM">
    <mxGraphModel dx="2021" dy="644" grid="0" gridSize="10" guides="1" tooltips="1" connect="1" arrows="1" fold="1" page="0" pageScale="1" pageWidth="827" pageHeight="1169" math="0" shadow="0">
      <root>
        <mxCell id="0" />
        <mxCell id="1" parent="0" />
        <mxCell id="hL0enE2Cc48wqUUCuK2n-13" value="" style="rounded=0;whiteSpace=wrap;html=1;" parent="1" vertex="1">
          <mxGeometry x="220" y="150" width="750" height="990" as="geometry" />
        </mxCell>
        <mxCell id="hL0enE2Cc48wqUUCuK2n-2" value="in" style="text;html=1;strokeColor=none;fillColor=none;align=center;verticalAlign=middle;whiteSpace=wrap;rounded=0;" parent="1" vertex="1">
          <mxGeometry x="230" y="30" width="60" height="30" as="geometry" />
        </mxCell>
        <mxCell id="hL0enE2Cc48wqUUCuK2n-3" style="edgeStyle=orthogonalEdgeStyle;rounded=0;orthogonalLoop=1;jettySize=auto;html=1;exitX=0.5;exitY=1;exitDx=0;exitDy=0;" parent="1" source="hL0enE2Cc48wqUUCuK2n-4" edge="1">
          <mxGeometry relative="1" as="geometry">
            <mxPoint x="340" y="210" as="targetPoint" />
          </mxGeometry>
        </mxCell>
        <mxCell id="hL0enE2Cc48wqUUCuK2n-4" value="weight" style="text;html=1;strokeColor=none;fillColor=none;align=center;verticalAlign=middle;whiteSpace=wrap;rounded=0;" parent="1" vertex="1">
          <mxGeometry x="310" y="30" width="60" height="30" as="geometry" />
        </mxCell>
        <mxCell id="hL0enE2Cc48wqUUCuK2n-6" value="bias" style="text;html=1;strokeColor=none;fillColor=none;align=center;verticalAlign=middle;whiteSpace=wrap;rounded=0;" parent="1" vertex="1">
          <mxGeometry x="390" y="30" width="60" height="30" as="geometry" />
        </mxCell>
        <mxCell id="hL0enE2Cc48wqUUCuK2n-8" value="bound_level" style="text;html=1;strokeColor=none;fillColor=none;align=center;verticalAlign=middle;whiteSpace=wrap;rounded=0;" parent="1" vertex="1">
          <mxGeometry x="510" y="30" width="60" height="30" as="geometry" />
        </mxCell>
        <mxCell id="hL0enE2Cc48wqUUCuK2n-10" value="step" style="text;html=1;strokeColor=none;fillColor=none;align=center;verticalAlign=middle;whiteSpace=wrap;rounded=0;" parent="1" vertex="1">
          <mxGeometry x="630" y="30" width="60" height="30" as="geometry" />
        </mxCell>
        <mxCell id="hL0enE2Cc48wqUUCuK2n-12" value="en" style="text;html=1;strokeColor=none;fillColor=none;align=center;verticalAlign=middle;whiteSpace=wrap;rounded=0;" parent="1" vertex="1">
          <mxGeometry x="750" y="30" width="60" height="30" as="geometry" />
        </mxCell>
        <mxCell id="hL0enE2Cc48wqUUCuK2n-26" style="edgeStyle=orthogonalEdgeStyle;rounded=0;orthogonalLoop=1;jettySize=auto;html=1;exitX=0.5;exitY=1;exitDx=0;exitDy=0;entryX=0.5;entryY=0;entryDx=0;entryDy=0;" parent="1" source="hL0enE2Cc48wqUUCuK2n-14" target="hL0enE2Cc48wqUUCuK2n-16" edge="1">
          <mxGeometry relative="1" as="geometry" />
        </mxCell>
        <mxCell id="hL0enE2Cc48wqUUCuK2n-14" value="x" style="ellipse;whiteSpace=wrap;html=1;aspect=fixed;fontSize=37;" parent="1" vertex="1">
          <mxGeometry x="250" y="200" width="100" height="100" as="geometry" />
        </mxCell>
        <mxCell id="hL0enE2Cc48wqUUCuK2n-15" style="edgeStyle=orthogonalEdgeStyle;rounded=0;orthogonalLoop=1;jettySize=auto;html=1;exitX=0.5;exitY=1;exitDx=0;exitDy=0;" parent="1" edge="1">
          <mxGeometry relative="1" as="geometry">
            <mxPoint x="260" y="210" as="targetPoint" />
            <mxPoint x="260" y="60" as="sourcePoint" />
          </mxGeometry>
        </mxCell>
        <mxCell id="hL0enE2Cc48wqUUCuK2n-28" style="edgeStyle=orthogonalEdgeStyle;rounded=0;orthogonalLoop=1;jettySize=auto;html=1;exitX=0.5;exitY=1;exitDx=0;exitDy=0;entryX=0;entryY=0.5;entryDx=0;entryDy=0;" parent="1" source="hL0enE2Cc48wqUUCuK2n-16" target="hL0enE2Cc48wqUUCuK2n-27" edge="1">
          <mxGeometry relative="1" as="geometry">
            <Array as="points">
              <mxPoint x="300" y="510" />
            </Array>
          </mxGeometry>
        </mxCell>
        <mxCell id="hL0enE2Cc48wqUUCuK2n-16" value="FF" style="rounded=0;whiteSpace=wrap;html=1;" parent="1" vertex="1">
          <mxGeometry x="260" y="350" width="80" height="80" as="geometry" />
        </mxCell>
        <mxCell id="hL0enE2Cc48wqUUCuK2n-29" style="edgeStyle=orthogonalEdgeStyle;rounded=0;orthogonalLoop=1;jettySize=auto;html=1;exitX=0.5;exitY=1;exitDx=0;exitDy=0;entryX=1;entryY=0.5;entryDx=0;entryDy=0;" parent="1" source="hL0enE2Cc48wqUUCuK2n-17" target="hL0enE2Cc48wqUUCuK2n-27" edge="1">
          <mxGeometry relative="1" as="geometry">
            <Array as="points">
              <mxPoint x="420" y="510" />
            </Array>
          </mxGeometry>
        </mxCell>
        <mxCell id="hL0enE2Cc48wqUUCuK2n-17" value="FF" style="rounded=0;whiteSpace=wrap;html=1;" parent="1" vertex="1">
          <mxGeometry x="380" y="350" width="80" height="80" as="geometry" />
        </mxCell>
        <mxCell id="hL0enE2Cc48wqUUCuK2n-35" style="edgeStyle=orthogonalEdgeStyle;rounded=0;orthogonalLoop=1;jettySize=auto;html=1;exitX=0.5;exitY=1;exitDx=0;exitDy=0;entryX=1;entryY=0.5;entryDx=0;entryDy=0;" parent="1" source="hL0enE2Cc48wqUUCuK2n-18" target="hL0enE2Cc48wqUUCuK2n-32" edge="1">
          <mxGeometry relative="1" as="geometry" />
        </mxCell>
        <mxCell id="hL0enE2Cc48wqUUCuK2n-18" value="FF" style="rounded=0;whiteSpace=wrap;html=1;" parent="1" vertex="1">
          <mxGeometry x="500" y="350" width="80" height="80" as="geometry" />
        </mxCell>
        <mxCell id="hL0enE2Cc48wqUUCuK2n-37" style="edgeStyle=orthogonalEdgeStyle;rounded=0;orthogonalLoop=1;jettySize=auto;html=1;entryX=0.25;entryY=0;entryDx=0;entryDy=0;" parent="1" source="hL0enE2Cc48wqUUCuK2n-19" target="hL0enE2Cc48wqUUCuK2n-36" edge="1">
          <mxGeometry relative="1" as="geometry" />
        </mxCell>
        <mxCell id="hL0enE2Cc48wqUUCuK2n-19" value="FF" style="rounded=0;whiteSpace=wrap;html=1;" parent="1" vertex="1">
          <mxGeometry x="620" y="350" width="80" height="80" as="geometry" />
        </mxCell>
        <mxCell id="hL0enE2Cc48wqUUCuK2n-38" style="edgeStyle=orthogonalEdgeStyle;rounded=0;orthogonalLoop=1;jettySize=auto;html=1;entryX=0.75;entryY=0;entryDx=0;entryDy=0;" parent="1" source="hL0enE2Cc48wqUUCuK2n-20" target="hL0enE2Cc48wqUUCuK2n-36" edge="1">
          <mxGeometry relative="1" as="geometry" />
        </mxCell>
        <mxCell id="hL0enE2Cc48wqUUCuK2n-20" value="FF" style="rounded=0;whiteSpace=wrap;html=1;" parent="1" vertex="1">
          <mxGeometry x="740" y="350" width="80" height="80" as="geometry" />
        </mxCell>
        <mxCell id="hL0enE2Cc48wqUUCuK2n-21" style="edgeStyle=orthogonalEdgeStyle;rounded=0;orthogonalLoop=1;jettySize=auto;html=1;exitX=0.5;exitY=1;exitDx=0;exitDy=0;" parent="1" edge="1">
          <mxGeometry relative="1" as="geometry">
            <mxPoint x="420" y="340" as="targetPoint" />
            <mxPoint x="419.40999999999997" y="60" as="sourcePoint" />
          </mxGeometry>
        </mxCell>
        <mxCell id="hL0enE2Cc48wqUUCuK2n-23" style="edgeStyle=orthogonalEdgeStyle;rounded=0;orthogonalLoop=1;jettySize=auto;html=1;exitX=0.5;exitY=1;exitDx=0;exitDy=0;" parent="1" edge="1">
          <mxGeometry relative="1" as="geometry">
            <mxPoint x="540" y="340" as="targetPoint" />
            <mxPoint x="539.41" y="60" as="sourcePoint" />
          </mxGeometry>
        </mxCell>
        <mxCell id="hL0enE2Cc48wqUUCuK2n-24" style="edgeStyle=orthogonalEdgeStyle;rounded=0;orthogonalLoop=1;jettySize=auto;html=1;exitX=0.5;exitY=1;exitDx=0;exitDy=0;" parent="1" edge="1">
          <mxGeometry relative="1" as="geometry">
            <mxPoint x="660" y="340" as="targetPoint" />
            <mxPoint x="659.41" y="60" as="sourcePoint" />
          </mxGeometry>
        </mxCell>
        <mxCell id="hL0enE2Cc48wqUUCuK2n-25" style="edgeStyle=orthogonalEdgeStyle;rounded=0;orthogonalLoop=1;jettySize=auto;html=1;exitX=0.5;exitY=1;exitDx=0;exitDy=0;" parent="1" edge="1">
          <mxGeometry relative="1" as="geometry">
            <mxPoint x="780" y="340" as="targetPoint" />
            <mxPoint x="779.41" y="60" as="sourcePoint" />
          </mxGeometry>
        </mxCell>
        <mxCell id="hL0enE2Cc48wqUUCuK2n-33" style="edgeStyle=orthogonalEdgeStyle;rounded=0;orthogonalLoop=1;jettySize=auto;html=1;exitX=0.5;exitY=1;exitDx=0;exitDy=0;entryX=0.5;entryY=0;entryDx=0;entryDy=0;" parent="1" source="hL0enE2Cc48wqUUCuK2n-27" target="hL0enE2Cc48wqUUCuK2n-32" edge="1">
          <mxGeometry relative="1" as="geometry" />
        </mxCell>
        <mxCell id="hL0enE2Cc48wqUUCuK2n-27" value="+" style="ellipse;whiteSpace=wrap;html=1;aspect=fixed;fontSize=37;" parent="1" vertex="1">
          <mxGeometry x="310" y="460" width="100" height="100" as="geometry" />
        </mxCell>
        <mxCell id="hL0enE2Cc48wqUUCuK2n-60" style="edgeStyle=orthogonalEdgeStyle;rounded=0;orthogonalLoop=1;jettySize=auto;html=1;exitX=0.5;exitY=1;exitDx=0;exitDy=0;entryX=0.5;entryY=0;entryDx=0;entryDy=0;" parent="1" source="hL0enE2Cc48wqUUCuK2n-32" target="hL0enE2Cc48wqUUCuK2n-59" edge="1">
          <mxGeometry relative="1" as="geometry" />
        </mxCell>
        <mxCell id="hL0enE2Cc48wqUUCuK2n-32" value="set bound" style="rounded=0;whiteSpace=wrap;html=1;" parent="1" vertex="1">
          <mxGeometry x="300" y="610" width="120" height="60" as="geometry" />
        </mxCell>
        <mxCell id="hL0enE2Cc48wqUUCuK2n-34" value="addout_1[3]" style="text;html=1;strokeColor=none;fillColor=none;align=center;verticalAlign=middle;whiteSpace=wrap;rounded=0;" parent="1" vertex="1">
          <mxGeometry x="370" y="570" width="60" height="30" as="geometry" />
        </mxCell>
        <mxCell id="hL0enE2Cc48wqUUCuK2n-41" style="edgeStyle=orthogonalEdgeStyle;rounded=0;orthogonalLoop=1;jettySize=auto;html=1;exitX=0.25;exitY=1;exitDx=0;exitDy=0;entryX=1;entryY=0.5;entryDx=0;entryDy=0;" parent="1" source="hL0enE2Cc48wqUUCuK2n-36" target="hL0enE2Cc48wqUUCuK2n-40" edge="1">
          <mxGeometry relative="1" as="geometry" />
        </mxCell>
        <mxCell id="hL0enE2Cc48wqUUCuK2n-47" style="edgeStyle=orthogonalEdgeStyle;rounded=0;orthogonalLoop=1;jettySize=auto;html=1;exitX=0.75;exitY=1;exitDx=0;exitDy=0;" parent="1" source="hL0enE2Cc48wqUUCuK2n-36" edge="1">
          <mxGeometry relative="1" as="geometry">
            <mxPoint x="890" y="1200" as="targetPoint" />
            <Array as="points">
              <mxPoint x="755" y="780" />
              <mxPoint x="890" y="780" />
            </Array>
          </mxGeometry>
        </mxCell>
        <mxCell id="hL0enE2Cc48wqUUCuK2n-36" value="counter" style="rounded=0;whiteSpace=wrap;html=1;" parent="1" vertex="1">
          <mxGeometry x="650" y="670" width="140" height="60" as="geometry" />
        </mxCell>
        <mxCell id="hL0enE2Cc48wqUUCuK2n-61" style="edgeStyle=orthogonalEdgeStyle;rounded=0;orthogonalLoop=1;jettySize=auto;html=1;exitX=0.5;exitY=0;exitDx=0;exitDy=0;entryX=1;entryY=0.5;entryDx=0;entryDy=0;" parent="1" source="hL0enE2Cc48wqUUCuK2n-40" target="hL0enE2Cc48wqUUCuK2n-59" edge="1">
          <mxGeometry relative="1" as="geometry" />
        </mxCell>
        <mxCell id="hL0enE2Cc48wqUUCuK2n-40" value="mux&lt;br&gt;1&amp;nbsp; &amp;nbsp; &amp;nbsp; &amp;nbsp; &amp;nbsp; &amp;nbsp; &amp;nbsp; 0" style="shape=trapezoid;perimeter=trapezoidPerimeter;whiteSpace=wrap;html=1;fixedSize=1;rotation=-90;" parent="1" vertex="1">
          <mxGeometry x="600" y="840" width="120" height="60" as="geometry" />
        </mxCell>
        <mxCell id="hL0enE2Cc48wqUUCuK2n-42" value="mux_f_s" style="text;html=1;strokeColor=none;fillColor=none;align=center;verticalAlign=middle;whiteSpace=wrap;rounded=0;" parent="1" vertex="1">
          <mxGeometry x="600" y="760" width="60" height="30" as="geometry" />
        </mxCell>
        <mxCell id="hL0enE2Cc48wqUUCuK2n-44" value="" style="endArrow=none;html=1;rounded=0;exitX=0.75;exitY=1;exitDx=0;exitDy=0;" parent="1" source="hL0enE2Cc48wqUUCuK2n-40" edge="1">
          <mxGeometry width="50" height="50" relative="1" as="geometry">
            <mxPoint x="580" y="880" as="sourcePoint" />
            <mxPoint x="720" y="840" as="targetPoint" />
          </mxGeometry>
        </mxCell>
        <mxCell id="hL0enE2Cc48wqUUCuK2n-45" value="8&#39;b0000_0000" style="text;html=1;strokeColor=none;fillColor=none;align=center;verticalAlign=middle;whiteSpace=wrap;rounded=0;" parent="1" vertex="1">
          <mxGeometry x="720" y="820" width="90" height="30" as="geometry" />
        </mxCell>
        <mxCell id="hL0enE2Cc48wqUUCuK2n-49" value="" style="triangle;whiteSpace=wrap;html=1;rotation=-180;" parent="1" vertex="1">
          <mxGeometry x="330" y="380" width="10" height="20" as="geometry" />
        </mxCell>
        <mxCell id="hL0enE2Cc48wqUUCuK2n-50" value="" style="triangle;whiteSpace=wrap;html=1;rotation=-180;" parent="1" vertex="1">
          <mxGeometry x="450" y="380" width="10" height="20" as="geometry" />
        </mxCell>
        <mxCell id="hL0enE2Cc48wqUUCuK2n-51" value="" style="triangle;whiteSpace=wrap;html=1;rotation=-180;" parent="1" vertex="1">
          <mxGeometry x="570" y="380" width="10" height="20" as="geometry" />
        </mxCell>
        <mxCell id="hL0enE2Cc48wqUUCuK2n-52" value="" style="triangle;whiteSpace=wrap;html=1;rotation=-180;" parent="1" vertex="1">
          <mxGeometry x="690" y="380" width="10" height="20" as="geometry" />
        </mxCell>
        <mxCell id="hL0enE2Cc48wqUUCuK2n-55" value="" style="triangle;whiteSpace=wrap;html=1;rotation=-180;" parent="1" vertex="1">
          <mxGeometry x="810" y="380" width="10" height="20" as="geometry" />
        </mxCell>
        <mxCell id="hL0enE2Cc48wqUUCuK2n-57" value="" style="triangle;whiteSpace=wrap;html=1;rotation=-180;" parent="1" vertex="1">
          <mxGeometry x="780" y="690" width="10" height="20" as="geometry" />
        </mxCell>
        <mxCell id="hL0enE2Cc48wqUUCuK2n-65" style="edgeStyle=orthogonalEdgeStyle;rounded=0;orthogonalLoop=1;jettySize=auto;html=1;exitX=0.5;exitY=1;exitDx=0;exitDy=0;entryX=0.5;entryY=0;entryDx=0;entryDy=0;" parent="1" source="hL0enE2Cc48wqUUCuK2n-59" target="hL0enE2Cc48wqUUCuK2n-64" edge="1">
          <mxGeometry relative="1" as="geometry" />
        </mxCell>
        <mxCell id="hL0enE2Cc48wqUUCuK2n-59" value="+" style="ellipse;whiteSpace=wrap;html=1;aspect=fixed;fontSize=37;" parent="1" vertex="1">
          <mxGeometry x="310" y="820" width="100" height="100" as="geometry" />
        </mxCell>
        <mxCell id="hL0enE2Cc48wqUUCuK2n-62" value="b_out" style="text;html=1;strokeColor=none;fillColor=none;align=center;verticalAlign=middle;whiteSpace=wrap;rounded=0;" parent="1" vertex="1">
          <mxGeometry x="370" y="720" width="60" height="30" as="geometry" />
        </mxCell>
        <mxCell id="hL0enE2Cc48wqUUCuK2n-63" value="adder_final_B" style="text;html=1;strokeColor=none;fillColor=none;align=center;verticalAlign=middle;whiteSpace=wrap;rounded=0;" parent="1" vertex="1">
          <mxGeometry x="470" y="840" width="90" height="30" as="geometry" />
        </mxCell>
        <mxCell id="hL0enE2Cc48wqUUCuK2n-67" style="edgeStyle=orthogonalEdgeStyle;rounded=0;orthogonalLoop=1;jettySize=auto;html=1;exitX=0.5;exitY=1;exitDx=0;exitDy=0;" parent="1" source="hL0enE2Cc48wqUUCuK2n-64" edge="1">
          <mxGeometry relative="1" as="geometry">
            <mxPoint x="489.8823529411766" y="1200" as="targetPoint" />
          </mxGeometry>
        </mxCell>
        <mxCell id="hL0enE2Cc48wqUUCuK2n-64" value="FF" style="rounded=0;whiteSpace=wrap;html=1;" parent="1" vertex="1">
          <mxGeometry x="450" y="1000" width="80" height="80" as="geometry" />
        </mxCell>
        <mxCell id="hL0enE2Cc48wqUUCuK2n-66" value="adder_final_out" style="text;html=1;strokeColor=none;fillColor=none;align=center;verticalAlign=middle;whiteSpace=wrap;rounded=0;" parent="1" vertex="1">
          <mxGeometry x="390" y="930" width="80" height="30" as="geometry" />
        </mxCell>
        <mxCell id="hL0enE2Cc48wqUUCuK2n-69" value="" style="endArrow=classic;html=1;rounded=0;entryX=0.25;entryY=1;entryDx=0;entryDy=0;" parent="1" target="hL0enE2Cc48wqUUCuK2n-40" edge="1">
          <mxGeometry width="50" height="50" relative="1" as="geometry">
            <mxPoint x="490" y="1110" as="sourcePoint" />
            <mxPoint x="630" y="950" as="targetPoint" />
            <Array as="points">
              <mxPoint x="790" y="1110" />
              <mxPoint x="790" y="900" />
            </Array>
          </mxGeometry>
        </mxCell>
        <mxCell id="hL0enE2Cc48wqUUCuK2n-70" value="out" style="text;html=1;strokeColor=none;fillColor=none;align=center;verticalAlign=middle;whiteSpace=wrap;rounded=0;" parent="1" vertex="1">
          <mxGeometry x="460" y="1210" width="60" height="30" as="geometry" />
        </mxCell>
        <mxCell id="hL0enE2Cc48wqUUCuK2n-71" value="out_en" style="text;html=1;strokeColor=none;fillColor=none;align=center;verticalAlign=middle;whiteSpace=wrap;rounded=0;" parent="1" vertex="1">
          <mxGeometry x="860" y="1210" width="60" height="30" as="geometry" />
        </mxCell>
        <mxCell id="hL0enE2Cc48wqUUCuK2n-72" value="" style="triangle;whiteSpace=wrap;html=1;rotation=-180;" parent="1" vertex="1">
          <mxGeometry x="520" y="1030" width="10" height="20" as="geometry" />
        </mxCell>
        <mxCell id="hL0enE2Cc48wqUUCuK2n-73" value="mul_out" style="text;html=1;strokeColor=none;fillColor=none;align=center;verticalAlign=middle;whiteSpace=wrap;rounded=0;" parent="1" vertex="1">
          <mxGeometry x="300" y="310" width="60" height="30" as="geometry" />
        </mxCell>
        <mxCell id="3Xo5tv-71KPwzLfjxiRY-1" value="" style="rounded=0;whiteSpace=wrap;html=1;fillColor=none;" parent="1" vertex="1">
          <mxGeometry x="-721" y="180" width="750" height="990" as="geometry" />
        </mxCell>
        <mxCell id="3Xo5tv-71KPwzLfjxiRY-2" value="in" style="text;html=1;strokeColor=none;fillColor=none;align=center;verticalAlign=middle;whiteSpace=wrap;rounded=0;" parent="1" vertex="1">
          <mxGeometry x="-711" y="60" width="60" height="30" as="geometry" />
        </mxCell>
        <mxCell id="3Xo5tv-71KPwzLfjxiRY-3" style="edgeStyle=orthogonalEdgeStyle;rounded=0;orthogonalLoop=1;jettySize=auto;html=1;exitX=0.5;exitY=1;exitDx=0;exitDy=0;" parent="1" source="3Xo5tv-71KPwzLfjxiRY-4" edge="1">
          <mxGeometry relative="1" as="geometry">
            <mxPoint x="-601" y="240" as="targetPoint" />
          </mxGeometry>
        </mxCell>
        <mxCell id="3Xo5tv-71KPwzLfjxiRY-4" value="weight" style="text;html=1;strokeColor=none;fillColor=none;align=center;verticalAlign=middle;whiteSpace=wrap;rounded=0;" parent="1" vertex="1">
          <mxGeometry x="-631" y="60" width="60" height="30" as="geometry" />
        </mxCell>
        <mxCell id="3Xo5tv-71KPwzLfjxiRY-5" value="bias" style="text;html=1;strokeColor=none;fillColor=none;align=center;verticalAlign=middle;whiteSpace=wrap;rounded=0;" parent="1" vertex="1">
          <mxGeometry x="-551" y="60" width="60" height="30" as="geometry" />
        </mxCell>
        <mxCell id="3Xo5tv-71KPwzLfjxiRY-6" value="bound_level" style="text;html=1;strokeColor=none;fillColor=none;align=center;verticalAlign=middle;whiteSpace=wrap;rounded=0;" parent="1" vertex="1">
          <mxGeometry x="-431" y="60" width="60" height="30" as="geometry" />
        </mxCell>
        <mxCell id="3Xo5tv-71KPwzLfjxiRY-7" value="step" style="text;html=1;strokeColor=none;fillColor=none;align=center;verticalAlign=middle;whiteSpace=wrap;rounded=0;" parent="1" vertex="1">
          <mxGeometry x="-311" y="60" width="60" height="30" as="geometry" />
        </mxCell>
        <mxCell id="3Xo5tv-71KPwzLfjxiRY-8" value="en" style="text;html=1;strokeColor=none;fillColor=none;align=center;verticalAlign=middle;whiteSpace=wrap;rounded=0;" parent="1" vertex="1">
          <mxGeometry x="-191" y="60" width="60" height="30" as="geometry" />
        </mxCell>
        <mxCell id="3Xo5tv-71KPwzLfjxiRY-9" style="edgeStyle=orthogonalEdgeStyle;rounded=0;orthogonalLoop=1;jettySize=auto;html=1;exitX=0.5;exitY=1;exitDx=0;exitDy=0;entryX=0.5;entryY=0;entryDx=0;entryDy=0;" parent="1" source="3Xo5tv-71KPwzLfjxiRY-10" target="3Xo5tv-71KPwzLfjxiRY-13" edge="1">
          <mxGeometry relative="1" as="geometry" />
        </mxCell>
        <mxCell id="3Xo5tv-71KPwzLfjxiRY-10" value="x" style="ellipse;whiteSpace=wrap;html=1;aspect=fixed;fontSize=37;" parent="1" vertex="1">
          <mxGeometry x="-691" y="230" width="100" height="100" as="geometry" />
        </mxCell>
        <mxCell id="3Xo5tv-71KPwzLfjxiRY-11" style="edgeStyle=orthogonalEdgeStyle;rounded=0;orthogonalLoop=1;jettySize=auto;html=1;exitX=0.5;exitY=1;exitDx=0;exitDy=0;" parent="1" edge="1">
          <mxGeometry relative="1" as="geometry">
            <mxPoint x="-681" y="240" as="targetPoint" />
            <mxPoint x="-681" y="90" as="sourcePoint" />
          </mxGeometry>
        </mxCell>
        <mxCell id="3Xo5tv-71KPwzLfjxiRY-12" style="edgeStyle=orthogonalEdgeStyle;rounded=0;orthogonalLoop=1;jettySize=auto;html=1;exitX=0.5;exitY=1;exitDx=0;exitDy=0;entryX=0;entryY=0.5;entryDx=0;entryDy=0;" parent="1" source="3Xo5tv-71KPwzLfjxiRY-13" target="3Xo5tv-71KPwzLfjxiRY-27" edge="1">
          <mxGeometry relative="1" as="geometry">
            <Array as="points">
              <mxPoint x="-641" y="540" />
            </Array>
          </mxGeometry>
        </mxCell>
        <mxCell id="3Xo5tv-71KPwzLfjxiRY-13" value="FF" style="rounded=0;whiteSpace=wrap;html=1;" parent="1" vertex="1">
          <mxGeometry x="-681" y="380" width="80" height="80" as="geometry" />
        </mxCell>
        <mxCell id="3Xo5tv-71KPwzLfjxiRY-14" style="edgeStyle=orthogonalEdgeStyle;rounded=0;orthogonalLoop=1;jettySize=auto;html=1;exitX=0.5;exitY=1;exitDx=0;exitDy=0;entryX=1;entryY=0.5;entryDx=0;entryDy=0;" parent="1" source="3Xo5tv-71KPwzLfjxiRY-15" target="3Xo5tv-71KPwzLfjxiRY-27" edge="1">
          <mxGeometry relative="1" as="geometry">
            <Array as="points">
              <mxPoint x="-521" y="540" />
            </Array>
          </mxGeometry>
        </mxCell>
        <mxCell id="3Xo5tv-71KPwzLfjxiRY-15" value="FF" style="rounded=0;whiteSpace=wrap;html=1;" parent="1" vertex="1">
          <mxGeometry x="-561" y="380" width="80" height="80" as="geometry" />
        </mxCell>
        <mxCell id="3Xo5tv-71KPwzLfjxiRY-16" style="edgeStyle=orthogonalEdgeStyle;rounded=0;orthogonalLoop=1;jettySize=auto;html=1;exitX=0.5;exitY=1;exitDx=0;exitDy=0;entryX=1;entryY=0.5;entryDx=0;entryDy=0;" parent="1" source="3Xo5tv-71KPwzLfjxiRY-17" target="3Xo5tv-71KPwzLfjxiRY-29" edge="1">
          <mxGeometry relative="1" as="geometry" />
        </mxCell>
        <mxCell id="3Xo5tv-71KPwzLfjxiRY-17" value="FF" style="rounded=0;whiteSpace=wrap;html=1;" parent="1" vertex="1">
          <mxGeometry x="-441" y="380" width="80" height="80" as="geometry" />
        </mxCell>
        <mxCell id="3Xo5tv-71KPwzLfjxiRY-18" style="edgeStyle=orthogonalEdgeStyle;rounded=0;orthogonalLoop=1;jettySize=auto;html=1;entryX=0.25;entryY=0;entryDx=0;entryDy=0;" parent="1" source="3Xo5tv-71KPwzLfjxiRY-19" target="3Xo5tv-71KPwzLfjxiRY-33" edge="1">
          <mxGeometry relative="1" as="geometry" />
        </mxCell>
        <mxCell id="3Xo5tv-71KPwzLfjxiRY-19" value="FF" style="rounded=0;whiteSpace=wrap;html=1;" parent="1" vertex="1">
          <mxGeometry x="-321" y="380" width="80" height="80" as="geometry" />
        </mxCell>
        <mxCell id="3Xo5tv-71KPwzLfjxiRY-20" style="edgeStyle=orthogonalEdgeStyle;rounded=0;orthogonalLoop=1;jettySize=auto;html=1;entryX=0.75;entryY=0;entryDx=0;entryDy=0;" parent="1" source="3Xo5tv-71KPwzLfjxiRY-21" target="3Xo5tv-71KPwzLfjxiRY-33" edge="1">
          <mxGeometry relative="1" as="geometry" />
        </mxCell>
        <mxCell id="3Xo5tv-71KPwzLfjxiRY-21" value="FF" style="rounded=0;whiteSpace=wrap;html=1;" parent="1" vertex="1">
          <mxGeometry x="-201" y="380" width="80" height="80" as="geometry" />
        </mxCell>
        <mxCell id="3Xo5tv-71KPwzLfjxiRY-22" style="edgeStyle=orthogonalEdgeStyle;rounded=0;orthogonalLoop=1;jettySize=auto;html=1;exitX=0.5;exitY=1;exitDx=0;exitDy=0;" parent="1" edge="1">
          <mxGeometry relative="1" as="geometry">
            <mxPoint x="-521" y="370" as="targetPoint" />
            <mxPoint x="-521.59" y="90" as="sourcePoint" />
          </mxGeometry>
        </mxCell>
        <mxCell id="3Xo5tv-71KPwzLfjxiRY-23" style="edgeStyle=orthogonalEdgeStyle;rounded=0;orthogonalLoop=1;jettySize=auto;html=1;exitX=0.5;exitY=1;exitDx=0;exitDy=0;" parent="1" edge="1">
          <mxGeometry relative="1" as="geometry">
            <mxPoint x="-401" y="370" as="targetPoint" />
            <mxPoint x="-401.59000000000003" y="90" as="sourcePoint" />
          </mxGeometry>
        </mxCell>
        <mxCell id="3Xo5tv-71KPwzLfjxiRY-24" style="edgeStyle=orthogonalEdgeStyle;rounded=0;orthogonalLoop=1;jettySize=auto;html=1;exitX=0.5;exitY=1;exitDx=0;exitDy=0;" parent="1" edge="1">
          <mxGeometry relative="1" as="geometry">
            <mxPoint x="-281" y="370" as="targetPoint" />
            <mxPoint x="-281.59000000000003" y="90" as="sourcePoint" />
          </mxGeometry>
        </mxCell>
        <mxCell id="3Xo5tv-71KPwzLfjxiRY-25" style="edgeStyle=orthogonalEdgeStyle;rounded=0;orthogonalLoop=1;jettySize=auto;html=1;exitX=0.5;exitY=1;exitDx=0;exitDy=0;" parent="1" edge="1">
          <mxGeometry relative="1" as="geometry">
            <mxPoint x="-161" y="370" as="targetPoint" />
            <mxPoint x="-161.59000000000003" y="90" as="sourcePoint" />
          </mxGeometry>
        </mxCell>
        <mxCell id="3Xo5tv-71KPwzLfjxiRY-26" style="edgeStyle=orthogonalEdgeStyle;rounded=0;orthogonalLoop=1;jettySize=auto;html=1;exitX=0.5;exitY=1;exitDx=0;exitDy=0;entryX=0.5;entryY=0;entryDx=0;entryDy=0;" parent="1" source="3Xo5tv-71KPwzLfjxiRY-27" target="3Xo5tv-71KPwzLfjxiRY-29" edge="1">
          <mxGeometry relative="1" as="geometry" />
        </mxCell>
        <mxCell id="3Xo5tv-71KPwzLfjxiRY-27" value="+" style="ellipse;whiteSpace=wrap;html=1;aspect=fixed;fontSize=37;" parent="1" vertex="1">
          <mxGeometry x="-631" y="490" width="100" height="100" as="geometry" />
        </mxCell>
        <mxCell id="3Xo5tv-71KPwzLfjxiRY-28" style="edgeStyle=orthogonalEdgeStyle;rounded=0;orthogonalLoop=1;jettySize=auto;html=1;exitX=0.5;exitY=1;exitDx=0;exitDy=0;entryX=0.5;entryY=0;entryDx=0;entryDy=0;" parent="1" source="3Xo5tv-71KPwzLfjxiRY-29" target="3Xo5tv-71KPwzLfjxiRY-46" edge="1">
          <mxGeometry relative="1" as="geometry" />
        </mxCell>
        <mxCell id="3Xo5tv-71KPwzLfjxiRY-29" value="set bound" style="rounded=0;whiteSpace=wrap;html=1;" parent="1" vertex="1">
          <mxGeometry x="-641" y="640" width="120" height="60" as="geometry" />
        </mxCell>
        <mxCell id="3Xo5tv-71KPwzLfjxiRY-30" value="addout_1[3]" style="text;html=1;strokeColor=none;fillColor=none;align=center;verticalAlign=middle;whiteSpace=wrap;rounded=0;" parent="1" vertex="1">
          <mxGeometry x="-571" y="600" width="60" height="30" as="geometry" />
        </mxCell>
        <mxCell id="3Xo5tv-71KPwzLfjxiRY-31" style="edgeStyle=orthogonalEdgeStyle;rounded=0;orthogonalLoop=1;jettySize=auto;html=1;exitX=0.25;exitY=1;exitDx=0;exitDy=0;entryX=1;entryY=0.5;entryDx=0;entryDy=0;" parent="1" source="3Xo5tv-71KPwzLfjxiRY-33" target="3Xo5tv-71KPwzLfjxiRY-35" edge="1">
          <mxGeometry relative="1" as="geometry" />
        </mxCell>
        <mxCell id="3Xo5tv-71KPwzLfjxiRY-32" style="edgeStyle=orthogonalEdgeStyle;rounded=0;orthogonalLoop=1;jettySize=auto;html=1;exitX=0.75;exitY=1;exitDx=0;exitDy=0;" parent="1" source="3Xo5tv-71KPwzLfjxiRY-33" edge="1">
          <mxGeometry relative="1" as="geometry">
            <mxPoint x="-51" y="1230" as="targetPoint" />
            <Array as="points">
              <mxPoint x="-186" y="747" />
              <mxPoint x="-51" y="747" />
            </Array>
          </mxGeometry>
        </mxCell>
        <mxCell id="3Xo5tv-71KPwzLfjxiRY-33" value="counter" style="rounded=0;whiteSpace=wrap;html=1;" parent="1" vertex="1">
          <mxGeometry x="-291" y="625" width="140" height="60" as="geometry" />
        </mxCell>
        <mxCell id="3Xo5tv-71KPwzLfjxiRY-34" style="edgeStyle=orthogonalEdgeStyle;rounded=0;orthogonalLoop=1;jettySize=auto;html=1;exitX=0.5;exitY=0;exitDx=0;exitDy=0;entryX=1;entryY=0.5;entryDx=0;entryDy=0;" parent="1" source="3Xo5tv-71KPwzLfjxiRY-35" target="3Xo5tv-71KPwzLfjxiRY-46" edge="1">
          <mxGeometry relative="1" as="geometry" />
        </mxCell>
        <mxCell id="3Xo5tv-71KPwzLfjxiRY-35" value="mux&lt;br&gt;1&amp;nbsp; &amp;nbsp; &amp;nbsp; &amp;nbsp; &amp;nbsp; &amp;nbsp; &amp;nbsp; 0" style="shape=trapezoid;perimeter=trapezoidPerimeter;whiteSpace=wrap;html=1;fixedSize=1;rotation=-90;" parent="1" vertex="1">
          <mxGeometry x="-341" y="820" width="120" height="60" as="geometry" />
        </mxCell>
        <mxCell id="3Xo5tv-71KPwzLfjxiRY-36" value="mux_f_s" style="text;html=1;strokeColor=none;fillColor=none;align=center;verticalAlign=middle;whiteSpace=wrap;rounded=0;" parent="1" vertex="1">
          <mxGeometry x="-341" y="740" width="60" height="30" as="geometry" />
        </mxCell>
        <mxCell id="3Xo5tv-71KPwzLfjxiRY-37" value="" style="endArrow=none;html=1;rounded=0;exitX=0.75;exitY=1;exitDx=0;exitDy=0;entryX=0;entryY=0.5;entryDx=0;entryDy=0;" parent="1" source="3Xo5tv-71KPwzLfjxiRY-35" target="3Xo5tv-71KPwzLfjxiRY-38" edge="1">
          <mxGeometry width="50" height="50" relative="1" as="geometry">
            <mxPoint x="-361" y="910" as="sourcePoint" />
            <mxPoint x="-221" y="870" as="targetPoint" />
          </mxGeometry>
        </mxCell>
        <mxCell id="3Xo5tv-71KPwzLfjxiRY-38" value="8&#39;b0000_0000" style="text;html=1;strokeColor=none;fillColor=none;align=center;verticalAlign=middle;whiteSpace=wrap;rounded=0;" parent="1" vertex="1">
          <mxGeometry x="-221" y="804" width="90" height="30" as="geometry" />
        </mxCell>
        <mxCell id="3Xo5tv-71KPwzLfjxiRY-39" value="" style="triangle;whiteSpace=wrap;html=1;rotation=-180;" parent="1" vertex="1">
          <mxGeometry x="-611" y="410" width="10" height="20" as="geometry" />
        </mxCell>
        <mxCell id="3Xo5tv-71KPwzLfjxiRY-40" value="" style="triangle;whiteSpace=wrap;html=1;rotation=-180;" parent="1" vertex="1">
          <mxGeometry x="-491" y="410" width="10" height="20" as="geometry" />
        </mxCell>
        <mxCell id="3Xo5tv-71KPwzLfjxiRY-41" value="" style="triangle;whiteSpace=wrap;html=1;rotation=-180;" parent="1" vertex="1">
          <mxGeometry x="-371" y="410" width="10" height="20" as="geometry" />
        </mxCell>
        <mxCell id="3Xo5tv-71KPwzLfjxiRY-42" value="" style="triangle;whiteSpace=wrap;html=1;rotation=-180;" parent="1" vertex="1">
          <mxGeometry x="-251" y="410" width="10" height="20" as="geometry" />
        </mxCell>
        <mxCell id="3Xo5tv-71KPwzLfjxiRY-43" value="" style="triangle;whiteSpace=wrap;html=1;rotation=-180;" parent="1" vertex="1">
          <mxGeometry x="-131" y="410" width="10" height="20" as="geometry" />
        </mxCell>
        <mxCell id="3Xo5tv-71KPwzLfjxiRY-44" value="" style="triangle;whiteSpace=wrap;html=1;rotation=-180;" parent="1" vertex="1">
          <mxGeometry x="-161" y="648" width="10" height="20" as="geometry" />
        </mxCell>
        <mxCell id="3Xo5tv-71KPwzLfjxiRY-45" style="edgeStyle=orthogonalEdgeStyle;rounded=0;orthogonalLoop=1;jettySize=auto;html=1;exitX=0.5;exitY=1;exitDx=0;exitDy=0;entryX=0.75;entryY=1;entryDx=0;entryDy=0;" parent="1" source="3Xo5tv-71KPwzLfjxiRY-46" target="3Xo5tv-71KPwzLfjxiRY-57" edge="1">
          <mxGeometry relative="1" as="geometry">
            <mxPoint x="-459" y="1000" as="targetPoint" />
          </mxGeometry>
        </mxCell>
        <mxCell id="3Xo5tv-71KPwzLfjxiRY-46" value="+" style="ellipse;whiteSpace=wrap;html=1;aspect=fixed;fontSize=37;" parent="1" vertex="1">
          <mxGeometry x="-631" y="800" width="100" height="100" as="geometry" />
        </mxCell>
        <mxCell id="3Xo5tv-71KPwzLfjxiRY-47" value="b_out" style="text;html=1;strokeColor=none;fillColor=none;align=center;verticalAlign=middle;whiteSpace=wrap;rounded=0;" parent="1" vertex="1">
          <mxGeometry x="-571" y="735" width="60" height="30" as="geometry" />
        </mxCell>
        <mxCell id="3Xo5tv-71KPwzLfjxiRY-48" value="adder_final_B" style="text;html=1;strokeColor=none;fillColor=none;align=center;verticalAlign=middle;whiteSpace=wrap;rounded=0;" parent="1" vertex="1">
          <mxGeometry x="-471" y="870" width="90" height="30" as="geometry" />
        </mxCell>
        <mxCell id="3Xo5tv-71KPwzLfjxiRY-49" style="edgeStyle=orthogonalEdgeStyle;rounded=0;orthogonalLoop=1;jettySize=auto;html=1;exitX=0.5;exitY=1;exitDx=0;exitDy=0;" parent="1" source="3Xo5tv-71KPwzLfjxiRY-50" edge="1">
          <mxGeometry relative="1" as="geometry">
            <mxPoint x="-451.1176470588234" y="1230" as="targetPoint" />
          </mxGeometry>
        </mxCell>
        <mxCell id="3Xo5tv-71KPwzLfjxiRY-50" value="FF" style="rounded=0;whiteSpace=wrap;html=1;" parent="1" vertex="1">
          <mxGeometry x="-491" y="1050" width="80" height="80" as="geometry" />
        </mxCell>
        <mxCell id="3Xo5tv-71KPwzLfjxiRY-51" value="adder_final_out" style="text;html=1;strokeColor=none;fillColor=none;align=center;verticalAlign=middle;whiteSpace=wrap;rounded=0;" parent="1" vertex="1">
          <mxGeometry x="-604" y="930" width="80" height="30" as="geometry" />
        </mxCell>
        <mxCell id="3Xo5tv-71KPwzLfjxiRY-52" value="" style="endArrow=classic;html=1;rounded=0;entryX=0.25;entryY=1;entryDx=0;entryDy=0;" parent="1" target="3Xo5tv-71KPwzLfjxiRY-35" edge="1">
          <mxGeometry width="50" height="50" relative="1" as="geometry">
            <mxPoint x="-451" y="1140" as="sourcePoint" />
            <mxPoint x="-311" y="980" as="targetPoint" />
            <Array as="points">
              <mxPoint x="-151" y="1140" />
              <mxPoint x="-151" y="880" />
            </Array>
          </mxGeometry>
        </mxCell>
        <mxCell id="3Xo5tv-71KPwzLfjxiRY-53" value="out" style="text;html=1;strokeColor=none;fillColor=none;align=center;verticalAlign=middle;whiteSpace=wrap;rounded=0;" parent="1" vertex="1">
          <mxGeometry x="-481" y="1240" width="60" height="30" as="geometry" />
        </mxCell>
        <mxCell id="3Xo5tv-71KPwzLfjxiRY-54" value="out_en" style="text;html=1;strokeColor=none;fillColor=none;align=center;verticalAlign=middle;whiteSpace=wrap;rounded=0;" parent="1" vertex="1">
          <mxGeometry x="-81" y="1240" width="60" height="30" as="geometry" />
        </mxCell>
        <mxCell id="3Xo5tv-71KPwzLfjxiRY-55" value="" style="triangle;whiteSpace=wrap;html=1;rotation=-180;" parent="1" vertex="1">
          <mxGeometry x="-421" y="1060" width="10" height="20" as="geometry" />
        </mxCell>
        <mxCell id="3Xo5tv-71KPwzLfjxiRY-56" value="mul_out" style="text;html=1;strokeColor=none;fillColor=none;align=center;verticalAlign=middle;whiteSpace=wrap;rounded=0;" parent="1" vertex="1">
          <mxGeometry x="-641" y="340" width="60" height="30" as="geometry" />
        </mxCell>
        <mxCell id="3Xo5tv-71KPwzLfjxiRY-61" style="edgeStyle=orthogonalEdgeStyle;rounded=0;orthogonalLoop=1;jettySize=auto;html=1;entryX=0.5;entryY=0;entryDx=0;entryDy=0;" parent="1" source="3Xo5tv-71KPwzLfjxiRY-57" target="3Xo5tv-71KPwzLfjxiRY-50" edge="1">
          <mxGeometry relative="1" as="geometry" />
        </mxCell>
        <mxCell id="3Xo5tv-71KPwzLfjxiRY-57" value="mux&lt;br&gt;0&amp;nbsp; &amp;nbsp; &amp;nbsp; &amp;nbsp; &amp;nbsp; &amp;nbsp; &amp;nbsp; 1" style="shape=trapezoid;perimeter=trapezoidPerimeter;whiteSpace=wrap;html=1;fixedSize=1;rotation=-180;" parent="1" vertex="1">
          <mxGeometry x="-511" y="951" width="120" height="60" as="geometry" />
        </mxCell>
        <mxCell id="3Xo5tv-71KPwzLfjxiRY-63" value="" style="endArrow=classic;html=1;rounded=0;entryX=0.25;entryY=1;entryDx=0;entryDy=0;" parent="1" target="3Xo5tv-71KPwzLfjxiRY-57" edge="1">
          <mxGeometry width="50" height="50" relative="1" as="geometry">
            <mxPoint x="-150" y="924" as="sourcePoint" />
            <mxPoint x="-5" y="636" as="targetPoint" />
            <Array as="points">
              <mxPoint x="-421" y="929" />
            </Array>
          </mxGeometry>
        </mxCell>
        <mxCell id="t28WH6mmnqnLkBQM-FgU-1" value="" style="endArrow=classic;html=1;rounded=0;entryX=0;entryY=0.5;entryDx=0;entryDy=0;" edge="1" parent="1" target="3Xo5tv-71KPwzLfjxiRY-57">
          <mxGeometry width="50" height="50" relative="1" as="geometry">
            <mxPoint x="-162" y="543" as="sourcePoint" />
            <mxPoint x="-75" y="719" as="targetPoint" />
            <Array as="points">
              <mxPoint x="-3" y="543" />
              <mxPoint x="-3" y="979" />
            </Array>
          </mxGeometry>
        </mxCell>
      </root>
    </mxGraphModel>
  </diagram>
</mxfile>
